<?xml version="1.0" encoding="UTF-8"?>
<svg id="Layer_2" data-name="Layer 2" xmlns="http://www.w3.org/2000/svg" viewBox="0 0 17.68 29.55">
  <defs>
    <style>
      .cls-1 {
        fill: #70c9be;
        stroke: #65250e;
        stroke-miterlimit: 10;
        stroke-width: .16px;
      }

      .cls-2 {
        fill: #454119;
      }

      .cls-2, .cls-3 {
        stroke-width: 0px;
      }

      .cls-3 {
        fill: #fff;
      }
    </style>
  </defs>
  <g id="Layer_1-2" data-name="Layer 1">
    <g>
      <polygon class="cls-2" points="13.87 13.74 9.33 15.09 12.92 9.02 17.68 9.02 17.35 7.03 15.81 7.03 11.17 2.1 5.06 7.03 2.55 7.03 2.59 9.02 7.22 9.02 1.77 17.34 .15 17.82 .15 19.81 4.98 19.81 2.96 25.11 2.71 25.2 1.24 27.56 1.26 29.55 6.77 23.64 6.77 23.64 14.13 15.73 13.87 13.74"/>
      <polygon class="cls-1" points="12.68 7.02 17.34 7.02 10.96 .11 2.54 7.02 7.09 7.02 .14 17.82 4.88 17.82 1.23 27.56 13.86 13.74 8.78 13.74 12.68 7.02"/>
      <rect class="cls-3" x="7.03" y="17.19" width=".33" height="6.02" rx=".16" ry=".16" transform="translate(15.62 .48) rotate(42.74)"/>
      <rect class="cls-3" x="4.42" y="7.23" width=".38" height="9.32" rx=".19" ry=".19" transform="translate(7.21 -.59) rotate(32.98)"/>
      <rect class="cls-3" x="3.43" y="13.81" width=".31" height="1.79" rx=".15" ry=".15" transform="translate(8.58 .42) rotate(32.98)"/>
      <g>
        <rect class="cls-3" x="7.17" y="2.26" width=".29" height="3.95" rx=".14" ry=".14" transform="translate(5.86 -4.09) rotate(50.02)"/>
        <rect class="cls-3" x="9.32" y="2" width=".29" height=".87" rx=".14" ry=".14" transform="translate(5.25 -6.38) rotate(50.02)"/>
      </g>
    </g>
  </g>
</svg>