<?xml version="1.0" encoding="UTF-8"?>
<svg id="Layer_2" data-name="Layer 2" xmlns="http://www.w3.org/2000/svg" xmlns:xlink="http://www.w3.org/1999/xlink" viewBox="0 0 72.8 22.54">
  <defs>
    <style>
      .cls-1 {
        clip-path: url(#clippath);
      }

      .cls-2 {
        fill: none;
      }

      .cls-2, .cls-3, .cls-4, .cls-5, .cls-6, .cls-7, .cls-8, .cls-9 {
        stroke-width: 0px;
      }

      .cls-3 {
        fill: url(#linear-gradient);
      }

      .cls-4 {
        fill: #f37a20;
      }

      .cls-5 {
        fill: #f89e1b;
      }

      .cls-6 {
        fill: url(#linear-gradient-2);
      }

      .cls-7 {
        fill: url(#linear-gradient-3);
      }

      .cls-8 {
        fill-rule: evenodd;
      }

      .cls-8, .cls-9 {
        fill: #fff;
      }
    </style>
    <clipPath id="clippath">
      <rect class="cls-2" width="72.8" height="22.54"/>
    </clipPath>
    <linearGradient id="linear-gradient" x1="17.9" y1="10.59" x2="15.15" y2="10.59" gradientUnits="userSpaceOnUse">
      <stop offset="0" stop-color="#f37a20"/>
      <stop offset=".69" stop-color="#f6911c"/>
      <stop offset="1" stop-color="#f89e1b"/>
    </linearGradient>
    <linearGradient id="linear-gradient-2" x1="22.88" y1="10.59" x2="11.95" y2="10.59" xlink:href="#linear-gradient"/>
    <linearGradient id="linear-gradient-3" x1="22.88" y1="10.59" x2="11.95" y2="10.59" xlink:href="#linear-gradient"/>
  </defs>
  <g id="Layer_1-2" data-name="Layer 1">
    <g class="cls-1">
      <g>
        <path class="cls-4" d="M28.47,4.93c-3.11,0-5.63,2.51-5.65,5.62h0v10.25h2.08v-5.83c.98.8,2.22,1.28,3.58,1.28,3.12,0,5.66-2.53,5.66-5.66s-2.53-5.66-5.66-5.66ZM28.47,14.14c-1.96,0-3.55-1.59-3.55-3.55s1.59-3.55,3.55-3.55,3.55,1.59,3.55,3.55-1.59,3.55-3.55,3.55Z"/>
        <path class="cls-8" d="M42.04,4.87h0c-.8,0-1.53.3-2.08.79-.55-.49-1.28-.79-2.08-.79h0c-1.72,0-3.12,1.4-3.12,3.12v8.26h2.08V7.93c0-.57.47-1.04,1.04-1.04h0c.57,0,1.04.47,1.04,1.04v.05s0,0,0,0v8.26h2.08V7.99s0,0,0,0v-.05c0-.57.47-1.04,1.04-1.04h0c.57,0,1.04.47,1.04,1.04v8.31h2.08V7.99c0-1.72-1.4-3.12-3.12-3.12Z"/>
        <path class="cls-8" d="M63.84,8.22v-1.32c0-1.13-.91-2.04-2.04-2.04h-4.23c-1.13,0-2.04.91-2.04,2.04v2.64c0,1.13.91,2.04,2.04,2.04h3.48c.39,0,.71.32.71.71v1.16c0,.39-.32.71-.71.71h-2.74c-.39,0-.71-.32-.71-.71v-.58h-2.08v1.35c0,1.11.9,2.01,2.01,2.01h4.29c1.11,0,2.01-.9,2.01-2.01v-2.71c0-1.11-.9-2.01-2.01-2.01h-3.52c-.39,0-.71-.32-.71-.71v-1.16c0-.39.32-.71.71-.71h2.74c.39,0,.71.32.71.71v.58h2.08Z"/>
        <path class="cls-8" d="M72.8,8.23v-1.32c0-1.13-.91-2.04-2.04-2.04h-4.23c-1.13,0-2.04.91-2.04,2.04v2.64c0,1.13.91,2.04,2.04,2.04h3.48c.39,0,.71.32.71.71v1.16c0,.39-.32.71-.71.71h-2.74c-.39,0-.71-.32-.71-.71v-.58h-2.08v1.35c0,1.11.9,2.01,2.01,2.01h4.29c1.11,0,2.01-.9,2.01-2.01v-2.71c0-1.11-.9-2.01-2.01-2.01h-3.52c-.39,0-.71-.32-.71-.71v-1.16c0-.39.32-.71.71-.71h2.74c.39,0,.71.32.71.71v.58h2.08Z"/>
        <path class="cls-8" d="M54.73,14.17c-.34,0-.61-.27-.61-.61V5.07c0-.11-.09-.2-.2-.2h-1.68c-.11,0-.2.09-.2.2v.36c-.61-.35-1.32-.56-2.08-.56h0c-2.3,0-4.16,1.86-4.16,4.16v3.07c0,2.3,1.86,4.16,4.16,4.16h0c1,0,1.92-.36,2.64-.94.36.45.88.78,1.47.89.01,0,.02,0,.04,0,.28.03.54.03.78.02v-2.07s-.1.02-.15.02ZM49.97,14.17h0c-1.15,0-2.08-.93-2.08-2.08v-3.07c0-1.15.93-2.08,2.08-2.08h0c1.15,0,2.08.93,2.08,2.08v3.07c0,1.15-.93,2.08-2.08,2.08Z"/>
        <polygon class="cls-4" points="6.2 1.63 5.34 2.8 6.55 4.45 8.39 4.45 9.6 2.8 8.98 1.95 8.74 1.63 6.2 1.63"/>
        <polygon class="cls-2" points="9.06 1.25 9.06 1.25 10.15 2.73 9.06 1.25"/>
        <polygon class="cls-4" points="10.15 2.73 14.94 1.98 13.43 .46 9.04 1.23 9.06 1.25 9.06 1.25 10.15 2.73"/>
        <polygon class="cls-4" points="4.79 2.73 0 1.98 1.52 .46 5.9 1.23 5.89 1.25 5.89 1.25 4.79 2.73"/>
        <path class="cls-8" d="M1.52.46c1.7-.26,3.7-.46,5.96-.46s4.26.2,5.96.46c-1.46.26-2.91.52-4.37.78l-3.16-.02L1.52.46Z"/>
        <polygon class="cls-5" points="9.65 17.05 8.44 4.93 8.39 4.93 7.53 4.93 7.47 4.93 7.47 19.22 7.47 19.22 9.65 17.05"/>
        <polygon class="cls-4" points="7.41 4.93 6.61 4.93 6.5 4.93 5.29 17.05 7.47 19.22 7.47 4.93 7.41 4.93"/>
        <circle class="cls-3" cx="16.23" cy="10.59" r="1.49"/>
        <path class="cls-6" d="M16.23,8.05c1.4,0,2.54,1.14,2.54,2.54s-1.14,2.54-2.54,2.54-2.54-1.14-2.54-2.54,1.14-2.54,2.54-2.54M16.23,6.7c-2.15,0-3.89,1.75-3.89,3.89s1.75,3.89,3.89,3.89,3.89-1.75,3.89-3.89-1.75-3.89-3.89-3.89h0Z"/>
        <path class="cls-7" d="M16.23,5.65c2.73,0,4.94,2.21,4.94,4.94s-2.21,4.94-4.94,4.94-4.94-2.21-4.94-4.94,2.21-4.94,4.94-4.94M16.23,4.65c-3.28,0-5.94,2.66-5.94,5.94s2.66,5.94,5.94,5.94,5.94-2.66,5.94-5.94-2.66-5.94-5.94-5.94h0Z"/>
        <g>
          <path class="cls-9" d="M26.04,20.8v-2.21h.76c.12,0,.23.01.32.04.1.02.18.06.24.11.07.05.12.11.15.19.03.08.05.16.05.27s-.03.19-.08.27c-.05.08-.13.14-.24.19.06.02.12.04.17.08.05.03.09.07.12.12s.05.09.07.15c.02.05.02.11.02.17,0,.11-.02.2-.05.28-.03.08-.09.15-.15.2-.07.05-.15.09-.24.12-.09.03-.2.04-.32.04h-.81ZM26.42,19.52h.38c.12,0,.21-.03.28-.08.07-.05.1-.13.1-.23,0-.11-.03-.19-.09-.24-.06-.05-.16-.07-.29-.07h-.37v.62ZM26.42,19.8v.69h.43c.06,0,.12,0,.17-.02s.09-.04.12-.07c.03-.03.06-.07.07-.11.02-.04.02-.09.02-.14,0-.11-.03-.2-.09-.26-.06-.06-.15-.09-.28-.09h-.44Z"/>
          <path class="cls-9" d="M28.68,20.83c-.12,0-.23-.02-.33-.06-.1-.04-.18-.1-.25-.17-.07-.07-.12-.15-.16-.25s-.05-.2-.05-.31v-.06c0-.13.02-.25.06-.35s.09-.19.16-.27c.07-.07.15-.13.24-.17.09-.04.19-.06.29-.06.12,0,.22.02.31.06.09.04.16.1.22.17s.1.16.13.26.04.21.04.33v.16h-1.07c0,.06.02.12.04.18.02.05.05.1.09.14.04.04.08.07.13.09.05.02.11.03.17.03.09,0,.17-.02.24-.05.07-.04.13-.09.18-.15l.2.19s-.06.08-.1.11-.08.07-.14.1c-.05.03-.11.05-.18.07-.07.02-.14.03-.22.03ZM28.64,19.42c-.1,0-.18.04-.24.11-.06.07-.1.17-.12.3h.7v-.03s-.01-.1-.02-.14c-.01-.04-.03-.08-.06-.12-.03-.03-.06-.06-.1-.08-.04-.02-.09-.03-.15-.03Z"/>
          <path class="cls-9" d="M29.56,19.96c0-.12.02-.24.05-.34.03-.1.07-.19.13-.27s.13-.13.21-.17c.08-.04.17-.06.27-.06s.18.02.26.05c.07.03.13.08.19.14l.02-.17h.33v1.6c0,.11-.02.21-.05.29s-.09.16-.15.22c-.07.06-.14.1-.24.13s-.19.05-.3.05c-.05,0-.1,0-.15-.01s-.11-.03-.17-.05c-.06-.02-.11-.05-.16-.08-.05-.03-.1-.08-.13-.13l.17-.22c.06.07.13.12.2.15.07.03.14.05.22.05.12,0,.22-.03.29-.1.07-.07.11-.16.11-.29v-.11c-.05.06-.11.1-.18.13-.07.03-.15.05-.24.05-.1,0-.19-.02-.27-.06s-.15-.1-.21-.17-.1-.16-.13-.26c-.03-.1-.05-.21-.05-.33v-.03ZM29.93,19.99c0,.07,0,.14.02.21.01.06.04.12.07.17.03.05.07.09.12.11.05.03.1.04.17.04.08,0,.15-.02.2-.05s.1-.08.13-.14v-.72c-.03-.06-.08-.1-.13-.14-.05-.03-.12-.05-.2-.05-.07,0-.12.01-.17.04-.05.03-.09.07-.12.12s-.05.11-.07.17c-.02.07-.02.13-.02.21v.03Z"/>
          <path class="cls-9" d="M31.39,18.73c0-.06.02-.1.05-.14.04-.04.09-.06.15-.06s.12.02.15.06.05.08.05.14-.02.1-.05.14c-.04.04-.09.06-.15.06s-.12-.02-.15-.06c-.04-.04-.05-.08-.05-.14ZM31.78,20.8h-.37v-1.64h.37v1.64Z"/>
          <path class="cls-9" d="M32.52,19.15v.19c.07-.07.14-.12.22-.16.08-.04.17-.06.27-.06.08,0,.15.01.21.03.06.02.12.06.16.11s.08.11.11.19c.02.08.04.17.04.28v1.06h-.37v-1.06c0-.06,0-.1-.02-.14-.01-.04-.03-.07-.06-.09s-.05-.04-.09-.05c-.04-.01-.08-.02-.12-.02-.08,0-.14.02-.2.05s-.1.09-.13.15v1.17h-.37v-1.64h.35Z"/>
          <path class="cls-9" d="M34.25,19.15v.19c.07-.07.14-.12.22-.16.08-.04.17-.06.27-.06.08,0,.15.01.21.03.06.02.12.06.16.11s.08.11.11.19c.02.08.04.17.04.28v1.06h-.37v-1.06c0-.06,0-.1-.02-.14-.01-.04-.03-.07-.06-.09s-.05-.04-.09-.05c-.04-.01-.08-.02-.12-.02-.08,0-.14.02-.2.05s-.1.09-.13.15v1.17h-.37v-1.64h.35Z"/>
          <path class="cls-9" d="M35.64,18.73c0-.06.02-.1.05-.14.04-.04.09-.06.15-.06s.12.02.15.06.05.08.05.14-.02.1-.05.14c-.04.04-.09.06-.15.06s-.12-.02-.15-.06c-.04-.04-.05-.08-.05-.14ZM36.03,20.8h-.37v-1.64h.37v1.64Z"/>
          <path class="cls-9" d="M36.77,19.15v.19c.07-.07.14-.12.22-.16.08-.04.17-.06.27-.06.08,0,.15.01.21.03.06.02.12.06.16.11s.08.11.11.19c.02.08.04.17.04.28v1.06h-.37v-1.06c0-.06,0-.1-.02-.14-.01-.04-.03-.07-.06-.09s-.05-.04-.09-.05c-.04-.01-.08-.02-.12-.02-.08,0-.14.02-.2.05s-.1.09-.13.15v1.17h-.37v-1.64h.35Z"/>
          <path class="cls-9" d="M38.09,19.96c0-.12.02-.24.05-.34.03-.1.07-.19.13-.27s.13-.13.21-.17c.08-.04.17-.06.27-.06s.18.02.26.05c.07.03.13.08.19.14l.02-.17h.33v1.6c0,.11-.02.21-.05.29s-.09.16-.15.22c-.07.06-.14.1-.24.13s-.19.05-.3.05c-.05,0-.1,0-.15-.01s-.11-.03-.17-.05c-.06-.02-.11-.05-.16-.08-.05-.03-.1-.08-.13-.13l.17-.22c.06.07.13.12.2.15.07.03.14.05.22.05.12,0,.22-.03.29-.1.07-.07.11-.16.11-.29v-.11c-.05.06-.11.1-.18.13-.07.03-.15.05-.24.05-.1,0-.19-.02-.27-.06s-.15-.1-.21-.17-.1-.16-.13-.26c-.03-.1-.05-.21-.05-.33v-.03ZM38.46,19.99c0,.07,0,.14.02.21.01.06.04.12.07.17.03.05.07.09.12.11.05.03.1.04.17.04.08,0,.15-.02.2-.05s.1-.08.13-.14v-.72c-.03-.06-.08-.1-.13-.14-.05-.03-.12-.05-.2-.05-.07,0-.12.01-.17.04-.05.03-.09.07-.12.12s-.05.11-.07.17c-.02.07-.02.13-.02.21v.03Z"/>
          <path class="cls-9" d="M41.15,18.76v.4h.29v.27h-.29v.92s0,.07.01.09c0,.02.02.04.03.05.02.01.03.02.05.03.02,0,.04,0,.07,0s.05,0,.07,0c.02,0,.04,0,.06,0v.29s-.06.02-.1.02c-.04,0-.09.01-.14.01-.06,0-.12,0-.17-.02-.05-.02-.1-.04-.14-.08-.04-.04-.07-.08-.09-.14-.02-.06-.03-.13-.03-.22v-.94h-.27v-.27h.27v-.4h.37Z"/>
          <path class="cls-9" d="M42.09,19.33c.06-.07.12-.12.2-.15s.16-.06.26-.06c.08,0,.15.01.22.03.07.02.12.06.17.11.05.05.08.11.11.19.03.08.04.17.04.28v1.06h-.37v-1.06c0-.11-.02-.19-.07-.24-.05-.05-.12-.07-.22-.07-.08,0-.14.02-.2.05s-.1.08-.13.14v1.17h-.37v-2.33h.37v.87Z"/>
          <path class="cls-9" d="M44.17,20.83c-.12,0-.23-.02-.33-.06-.1-.04-.18-.1-.25-.17-.07-.07-.12-.15-.16-.25s-.05-.2-.05-.31v-.06c0-.13.02-.25.06-.35s.09-.19.16-.27c.07-.07.15-.13.24-.17.09-.04.19-.06.29-.06.12,0,.22.02.31.06.09.04.16.1.22.17s.1.16.13.26.04.21.04.33v.16h-1.07c0,.06.02.12.04.18.02.05.05.1.09.14.04.04.08.07.13.09.05.02.11.03.17.03.09,0,.17-.02.24-.05.07-.04.13-.09.18-.15l.2.19s-.06.08-.1.11-.08.07-.14.1c-.05.03-.11.05-.18.07-.07.02-.14.03-.22.03ZM44.13,19.42c-.1,0-.18.04-.24.11-.06.07-.1.17-.12.3h.7v-.03s-.01-.1-.02-.14c-.01-.04-.03-.08-.06-.12-.03-.03-.06-.06-.1-.08-.04-.02-.09-.03-.15-.03Z"/>
          <path class="cls-9" d="M46.61,20.83c-.12,0-.23-.02-.33-.06-.1-.04-.18-.1-.25-.17-.07-.07-.12-.15-.16-.25s-.05-.2-.05-.31v-.06c0-.13.02-.25.06-.35s.09-.19.16-.27c.07-.07.15-.13.24-.17.09-.04.19-.06.29-.06.12,0,.22.02.31.06.09.04.16.1.22.17s.1.16.13.26.04.21.04.33v.16h-1.07c0,.06.02.12.04.18.02.05.05.1.09.14.04.04.08.07.13.09.05.02.11.03.17.03.09,0,.17-.02.24-.05.07-.04.13-.09.18-.15l.2.19s-.06.08-.1.11-.08.07-.14.1c-.05.03-.11.05-.18.07-.07.02-.14.03-.22.03ZM46.57,19.42c-.1,0-.18.04-.24.11-.06.07-.1.17-.12.3h.7v-.03s-.01-.1-.02-.14c-.01-.04-.03-.08-.06-.12-.03-.03-.06-.06-.1-.08-.04-.02-.09-.03-.15-.03Z"/>
          <path class="cls-9" d="M47.9,19.15v.19c.07-.07.14-.12.22-.16.08-.04.17-.06.27-.06.08,0,.15.01.21.03.06.02.12.06.16.11s.08.11.11.19c.02.08.04.17.04.28v1.06h-.37v-1.06c0-.06,0-.1-.02-.14-.01-.04-.03-.07-.06-.09s-.05-.04-.09-.05c-.04-.01-.08-.02-.12-.02-.08,0-.14.02-.2.05s-.1.09-.13.15v1.17h-.37v-1.64h.35Z"/>
          <path class="cls-9" d="M49.75,18.76v.4h.29v.27h-.29v.92s0,.07.01.09c0,.02.02.04.03.05.02.01.03.02.05.03.02,0,.04,0,.07,0s.05,0,.07,0c.02,0,.04,0,.06,0v.29s-.06.02-.1.02c-.04,0-.09.01-.14.01-.06,0-.12,0-.17-.02-.05-.02-.1-.04-.14-.08-.04-.04-.07-.08-.09-.14-.02-.06-.03-.13-.03-.22v-.94h-.27v-.27h.27v-.4h.37Z"/>
          <path class="cls-9" d="M50.32,18.73c0-.06.02-.1.05-.14.04-.04.09-.06.15-.06s.12.02.15.06.05.08.05.14-.02.1-.05.14c-.04.04-.09.06-.15.06s-.12-.02-.15-.06c-.04-.04-.05-.08-.05-.14ZM50.71,20.8h-.37v-1.64h.37v1.64Z"/>
          <path class="cls-9" d="M51.97,19.49s-.05,0-.07,0-.05,0-.08,0c-.09,0-.16.02-.22.05-.06.03-.1.08-.12.14v1.12h-.37v-1.64h.35v.18c.05-.07.1-.12.16-.16.06-.04.13-.06.22-.06.02,0,.05,0,.07,0s.05,0,.06.01v.35Z"/>
          <path class="cls-9" d="M52.9,20.83c-.12,0-.23-.02-.33-.06-.1-.04-.18-.1-.25-.17-.07-.07-.12-.15-.16-.25s-.05-.2-.05-.31v-.06c0-.13.02-.25.06-.35s.09-.19.16-.27c.07-.07.15-.13.24-.17.09-.04.19-.06.29-.06.12,0,.22.02.31.06.09.04.16.1.22.17s.1.16.13.26.04.21.04.33v.16h-1.07c0,.06.02.12.04.18.02.05.05.1.09.14.04.04.08.07.13.09.05.02.11.03.17.03.09,0,.17-.02.24-.05.07-.04.13-.09.18-.15l.2.19s-.06.08-.1.11-.08.07-.14.1c-.05.03-.11.05-.18.07-.07.02-.14.03-.22.03ZM52.85,19.42c-.1,0-.18.04-.24.11-.06.07-.1.17-.12.3h.7v-.03s-.01-.1-.02-.14c-.01-.04-.03-.08-.06-.12-.03-.03-.06-.06-.1-.08-.04-.02-.09-.03-.15-.03Z"/>
          <path class="cls-9" d="M56.05,19.99c0,.12-.01.23-.04.34-.03.1-.07.19-.12.26-.05.07-.12.13-.2.17s-.17.06-.28.06-.19-.02-.26-.05-.14-.09-.19-.15l-.02.18h-.33v-2.33h.37v.85c.05-.06.11-.11.18-.14.07-.03.15-.05.25-.05.11,0,.2.02.28.06s.15.1.2.17.09.16.12.26.04.22.04.34v.03ZM55.69,19.96c0-.07,0-.14-.02-.2-.01-.06-.03-.12-.06-.17-.03-.05-.07-.09-.11-.12-.05-.03-.11-.04-.18-.04-.09,0-.16.02-.21.06-.05.04-.1.09-.13.15v.68c.03.06.07.12.13.15.06.04.13.06.21.06.07,0,.12-.01.17-.04.05-.03.08-.07.11-.11.03-.05.05-.1.06-.17.01-.06.02-.13.02-.21v-.03Z"/>
          <path class="cls-9" d="M57.22,19.49s-.05,0-.07,0-.05,0-.08,0c-.09,0-.16.02-.22.05-.06.03-.1.08-.12.14v1.12h-.37v-1.64h.35v.18c.05-.07.1-.12.16-.16.06-.04.13-.06.22-.06.02,0,.05,0,.07,0s.05,0,.06.01v.35Z"/>
          <path class="cls-9" d="M58.15,20.83c-.12,0-.23-.02-.33-.06-.1-.04-.18-.1-.25-.17-.07-.07-.12-.15-.16-.25s-.05-.2-.05-.31v-.06c0-.13.02-.25.06-.35s.09-.19.16-.27c.07-.07.15-.13.24-.17.09-.04.19-.06.29-.06.12,0,.22.02.31.06.09.04.16.1.22.17s.1.16.13.26.04.21.04.33v.16h-1.07c0,.06.02.12.04.18.02.05.05.1.09.14.04.04.08.07.13.09.05.02.11.03.17.03.09,0,.17-.02.24-.05.07-.04.13-.09.18-.15l.2.19s-.06.08-.1.11-.08.07-.14.1c-.05.03-.11.05-.18.07-.07.02-.14.03-.22.03ZM58.11,19.42c-.1,0-.18.04-.24.11-.06.07-.1.17-.12.3h.7v-.03s-.01-.1-.02-.14c-.01-.04-.03-.08-.06-.12-.03-.03-.06-.06-.1-.08-.04-.02-.09-.03-.15-.03Z"/>
          <path class="cls-9" d="M60.07,20.8s-.02-.04-.03-.07-.01-.05-.02-.08c-.02.03-.05.05-.08.07-.03.02-.06.04-.1.06-.04.02-.07.03-.12.04-.04,0-.09.01-.13.01-.08,0-.16-.01-.23-.04-.07-.02-.13-.06-.18-.1s-.09-.1-.12-.16c-.03-.06-.04-.12-.04-.19,0-.09.02-.17.05-.23.03-.07.08-.12.15-.17.06-.05.14-.08.23-.1.09-.02.2-.04.32-.04h.23v-.11c0-.08-.02-.15-.07-.2-.05-.05-.12-.08-.22-.08-.04,0-.08,0-.12.02s-.07.03-.09.05c-.02.02-.04.04-.06.07-.01.03-.02.06-.02.09h-.37c0-.06.02-.13.05-.19.03-.06.08-.11.14-.16.06-.05.13-.08.21-.11.08-.03.18-.04.28-.04.09,0,.18.01.25.04.08.02.15.06.2.11.06.05.1.11.13.18.03.07.05.15.05.25v.73c0,.15.02.27.06.35v.03h-.38ZM59.67,20.53s.08,0,.12-.02c.04-.01.07-.03.1-.04.03-.02.06-.04.08-.06.02-.02.04-.05.05-.07v-.31h-.2c-.14,0-.24.02-.31.07-.07.05-.1.11-.1.2,0,.03,0,.06.02.09.01.03.03.05.05.07.02.02.05.04.08.05.03.01.07.02.11.02Z"/>
          <path class="cls-9" d="M61.31,20.09l-.16.17v.54h-.37v-2.33h.37v1.34l.12-.14.45-.51h.44l-.61.68.67.96h-.43l-.49-.7Z"/>
          <path class="cls-9" d="M62.86,18.76v.4h.29v.27h-.29v.92s0,.07.01.09c0,.02.02.04.03.05.02.01.03.02.05.03.02,0,.04,0,.07,0s.05,0,.07,0c.02,0,.04,0,.06,0v.29s-.06.02-.1.02c-.04,0-.09.01-.14.01-.06,0-.12,0-.17-.02-.05-.02-.1-.04-.14-.08-.04-.04-.07-.08-.09-.14-.02-.06-.03-.13-.03-.22v-.94h-.27v-.27h.27v-.4h.37Z"/>
          <path class="cls-9" d="M63.79,19.33c.06-.07.12-.12.2-.15s.16-.06.26-.06c.08,0,.15.01.22.03.07.02.12.06.17.11.05.05.08.11.11.19.03.08.04.17.04.28v1.06h-.37v-1.06c0-.11-.02-.19-.07-.24-.05-.05-.12-.07-.22-.07-.08,0-.14.02-.2.05s-.1.08-.13.14v1.17h-.37v-2.33h.37v.87Z"/>
          <path class="cls-9" d="M66.01,19.49s-.05,0-.07,0-.05,0-.08,0c-.09,0-.16.02-.22.05-.06.03-.1.08-.12.14v1.12h-.37v-1.64h.35v.18c.05-.07.1-.12.16-.16.06-.04.13-.06.22-.06.02,0,.05,0,.07,0s.05,0,.06.01v.35Z"/>
          <path class="cls-9" d="M66.12,19.96c0-.12.02-.23.05-.33.03-.1.08-.19.15-.26.07-.07.14-.13.24-.18.09-.04.2-.06.32-.06s.23.02.32.06c.1.04.18.1.24.18.07.07.12.16.15.26.03.1.05.21.05.33v.03c0,.12-.02.23-.05.33-.03.1-.08.19-.15.26-.07.07-.15.13-.24.17s-.2.06-.32.06-.23-.02-.32-.06c-.09-.04-.17-.1-.24-.17-.07-.07-.12-.16-.15-.26-.03-.1-.05-.21-.05-.33v-.03ZM66.49,19.99c0,.07,0,.14.02.21.02.07.04.12.07.17.03.05.07.09.12.12.05.03.11.04.18.04s.13-.01.18-.04c.05-.03.09-.07.12-.12s.06-.11.07-.17c.02-.07.02-.14.02-.21v-.03c0-.07,0-.14-.02-.21-.02-.07-.04-.12-.07-.17-.03-.05-.07-.09-.12-.12-.05-.03-.11-.04-.18-.04s-.13.01-.18.04c-.05.03-.09.07-.12.12-.03.05-.06.11-.07.17-.02.07-.02.13-.02.21v.03Z"/>
          <path class="cls-9" d="M68.95,20.63c-.05.06-.12.11-.19.14s-.17.05-.27.05c-.08,0-.15-.01-.22-.03-.07-.02-.12-.06-.17-.11-.05-.05-.08-.11-.11-.19-.03-.08-.04-.17-.04-.28v-1.06h.37v1.06c0,.06,0,.11.02.15.01.04.03.07.06.09s.05.04.08.05c.03,0,.06.01.1.01.1,0,.17-.02.23-.05s.1-.08.13-.14v-1.18h.37v1.64h-.35v-.16Z"/>
          <path class="cls-9" d="M69.62,19.96c0-.12.02-.24.05-.34.03-.1.07-.19.13-.27s.13-.13.21-.17c.08-.04.17-.06.27-.06s.18.02.26.05c.07.03.13.08.19.14l.02-.17h.33v1.6c0,.11-.02.21-.05.29s-.09.16-.15.22c-.07.06-.14.1-.24.13s-.19.05-.3.05c-.05,0-.1,0-.15-.01s-.11-.03-.17-.05c-.06-.02-.11-.05-.16-.08-.05-.03-.1-.08-.13-.13l.17-.22c.06.07.13.12.2.15.07.03.14.05.22.05.12,0,.22-.03.29-.1.07-.07.11-.16.11-.29v-.11c-.05.06-.11.1-.18.13-.07.03-.15.05-.24.05-.1,0-.19-.02-.27-.06s-.15-.1-.21-.17-.1-.16-.13-.26c-.03-.1-.05-.21-.05-.33v-.03ZM69.99,19.99c0,.07,0,.14.02.21.01.06.04.12.07.17.03.05.07.09.12.11.05.03.1.04.17.04.08,0,.15-.02.2-.05s.1-.08.13-.14v-.72c-.03-.06-.08-.1-.13-.14-.05-.03-.12-.05-.2-.05-.07,0-.12.01-.17.04-.05.03-.09.07-.12.12s-.05.11-.07.17c-.02.07-.02.13-.02.21v.03Z"/>
          <path class="cls-9" d="M71.81,19.33c.06-.07.12-.12.2-.15s.16-.06.26-.06c.08,0,.15.01.22.03.07.02.12.06.17.11.05.05.08.11.11.19.03.08.04.17.04.28v1.06h-.37v-1.06c0-.11-.02-.19-.07-.24-.05-.05-.12-.07-.22-.07-.08,0-.14.02-.2.05s-.1.08-.13.14v1.17h-.37v-2.33h.37v.87Z"/>
        </g>
      </g>
    </g>
  </g>
</svg>